<svg width="22" height="22" viewBox="0 0 22 22" fill="none" xmlns="http://www.w3.org/2000/svg">
<path d="M1.39924 21.5588C1.01299 21.5569 0.664268 21.3226 0.51614 20.9663C0.368017 20.6082 0.450514 20.1957 0.722391 19.9219L19.9224 0.721924C20.2974 0.346924 20.9049 0.346924 21.2818 0.721924C21.6568 1.09692 21.6568 1.70444 21.2818 2.08128L2.08175 21.2813C1.89988 21.4594 1.65425 21.5607 1.39924 21.5588L1.39924 21.5588Z" fill="black"/>
<path d="M20.5996 21.56C20.3446 21.5581 20.1027 21.4569 19.9227 21.2769L0.722656 2.07689C0.347656 1.70189 0.347656 1.09438 0.722656 0.717529C1.09766 0.342529 1.70517 0.342529 2.08202 0.717529L21.282 19.9175C21.5576 20.1932 21.642 20.6075 21.492 20.9675C21.342 21.3275 20.9895 21.5619 20.5995 21.56L20.5996 21.56Z" fill="black"/>
</svg>
