<svg width="26" height="21" viewBox="0 0 26 21" fill="none" xmlns="http://www.w3.org/2000/svg">
<path d="M23.7391 0H2.26087C1.01175 0 0 1.02705 0 2.29506V18.7049C0 19.3131 0.238806 19.8969 0.662706 20.3273C1.08661 20.7576 1.66172 21 2.26087 21H23.7391C24.3382 21 24.9134 20.7576 25.3373 20.3273C25.7612 19.897 26 19.3131 26 18.7049V2.29506C26 1.68689 25.7612 1.10306 25.3373 0.672729C24.9134 0.242396 24.3383 0 23.7391 0ZM21.8287 6.39166L14.5487 10.6146C13.5921 11.1812 12.4079 11.1812 11.4513 10.6146L4.17132 6.39166C3.62871 6.08039 3.43656 5.38183 3.74176 4.83101C3.89154 4.56565 4.13884 4.37057 4.42848 4.29166C4.71957 4.21133 5.03045 4.25293 5.29043 4.40641L12.5704 8.62932C12.8375 8.7785 13.1625 8.7785 13.4296 8.62932L20.7096 4.40641C20.9696 4.25293 21.2804 4.21133 21.5715 4.29166C21.8612 4.37055 22.1085 4.56563 22.2582 4.83101C22.5635 5.38183 22.3713 6.08037 21.8287 6.39166H21.8287Z" fill="#0F6BA6"/>
</svg>
