<svg width="13" height="13" viewBox="0 0 13 13" fill="none" xmlns="http://www.w3.org/2000/svg">
<path fill-rule="evenodd" clip-rule="evenodd" d="M8.72241 1.27183C10.8188 3.06848 11.1788 6.17633 9.54862 8.40471L9.5496 8.40372L13 11.8544L11.8545 13L8.40407 9.54934C6.17587 11.1797 3.06825 10.8196 1.27173 8.72307C-0.524786 6.6265 -0.404554 3.50017 1.54768 1.5478C3.49991 -0.404585 6.626 -0.524826 8.72241 1.27183ZM1.65608 5.30109C1.65608 7.31574 3.28915 8.94893 5.30365 8.94893C7.31814 8.94893 8.95121 7.31574 8.95121 5.30109C8.95121 3.28645 7.31814 1.65325 5.30365 1.65325C3.28915 1.65325 1.65608 3.28645 1.65608 5.30109Z" fill="#36373A"/>
</svg>
