<svg xmlns="http://www.w3.org/2000/svg" viewBox="0 0 167 151" width="167" height="151">
	<style>
		tspan { white-space:pre }
		.shp0 { fill: #95292b } 
	</style>
	<path id="Layer" fill-rule="evenodd" class="shp0" d="M175.68 83.43L95.43 163.68C91.95 167.16 86.34 167.16 82.86 163.68L2.61 83.43C-0.87 79.95 -0.87 74.34 2.61 70.86L82.86 -9.39C86.34 -12.87 91.95 -12.87 95.43 -9.39L175.68 70.86C179.16 74.42 179.16 80.04 175.68 83.43ZM138.14 68.27L106.93 37.06L106.93 59.36L62.35 59.36C57.45 59.36 53.43 63.37 53.43 68.27L53.43 103.94L71.27 103.94L71.27 77.19L106.93 77.19L106.93 99.48L138.14 68.27Z" />
</svg>