<?xml version="1.0" standalone="no"?>
<!DOCTYPE svg PUBLIC "-//W3C//DTD SVG 20010904//EN"
 "http://www.w3.org/TR/2001/REC-SVG-20010904/DTD/svg10.dtd">
<svg version="1.0" xmlns="http://www.w3.org/2000/svg"
 width="622.000000pt" height="622.000000pt" viewBox="0 0 622.000000 622.000000"
 preserveAspectRatio="xMidYMid meet">
<metadata>
Created by potrace 1.11, written by Peter Selinger 2001-2013
</metadata>
<g transform="translate(0.000000,622.000000) scale(0.100000,-0.100000)"
fill="#000000" stroke="none">
<path d="M2855 6060 c-116 -71 -221 -135 -235 -143 -27 -15 -862 -524 -920
-561 -96 -62 -120 -76 -125 -76 -3 0 -11 -5 -18 -11 -7 -5 -131 -82 -277 -171
-146 -88 -287 -175 -315 -193 -27 -17 -116 -72 -197 -121 l-148 -89 0 -215
c-2 -914 0 -2883 2 -2885 2 -1 208 -125 458 -276 250 -150 486 -292 524 -316
38 -23 72 -41 75 -39 3 2 6 697 6 1544 l-1 1539 185 114 c102 63 191 115 198
117 7 2 13 8 13 13 0 5 4 9 10 9 5 0 36 17 67 37 32 21 67 43 78 49 18 10 467
285 685 419 47 29 245 150 440 270 195 120 380 233 410 252 30 19 62 38 70 43
309 188 294 177 268 193 -12 9 -73 46 -135 84 -62 37 -288 175 -502 306 -214
130 -393 237 -398 237 -5 0 -103 -58 -218 -130z"/>
<path d="M3719 4788 c-118 -72 -284 -174 -369 -226 -85 -52 -210 -128 -277
-169 -68 -41 -123 -77 -123 -81 0 -4 114 -76 253 -161 949 -580 1322 -808
1394 -855 l33 -21 2 -1168 3 -1167 52 34 c28 18 55 35 60 37 5 2 70 42 146 89
76 47 151 93 167 102 16 10 87 53 157 96 71 43 189 116 263 162 74 45 137 84
139 86 5 5 5 2333 0 2338 -2 2 -132 82 -289 178 -728 446 -1097 672 -1125 688
-55 32 -250 152 -261 161 -6 5 -91 -41 -225 -123z"/>
<path d="M3140 2855 c-47 -30 -96 -60 -110 -68 -14 -8 -103 -62 -199 -120 -95
-59 -175 -107 -178 -107 -2 0 -9 -5 -16 -11 -7 -5 -128 -80 -270 -166 l-257
-156 2 -765 3 -765 92 -56 c339 -208 448 -276 451 -283 2 -4 7 -8 12 -8 8 0
370 -222 458 -281 36 -24 42 -26 43 -11 1 9 2 354 3 766 l1 749 60 37 c96 60
246 152 625 385 195 120 374 232 398 248 l43 29 -238 144 c-131 79 -245 148
-253 153 -8 5 -98 60 -200 122 -102 62 -223 137 -269 166 -47 29 -92 53 -100
52 -9 0 -54 -25 -101 -54z"/>
</g>
</svg>
